<svg width="22" height="28" viewBox="0 0 22 28" fill="none" xmlns="http://www.w3.org/2000/svg">
<path d="M9.33901 22.034L9.15601 22.0942C7.97901 22.4849 6.238 23.0885 4.67501 23.8074C4.59201 23.8475 4.537 23.9577 4.537 23.9577C4.507 24.0253 4.472 24.108 4.432 24.2006L4.427 24.2132C4.251 24.6114 4.011 25.21 3.906 25.4555L3.826 25.6484C3.813 25.6784 3.821 25.7135 3.846 25.736C3.861 25.7511 3.878 25.7586 3.898 25.7586C3.908 25.7586 3.921 25.7561 3.933 25.7511L4.121 25.6609C4.55 25.458 5.091 25.1499 5.657 24.8794L5.677 24.8694C6.756 24.3584 7.974 23.7798 8.707 23.4292C8.707 23.4292 8.825 23.3666 8.885 23.2488L9.43401 22.1468C9.44901 22.1192 9.444 22.0841 9.424 22.0591C9.404 22.034 9.36901 22.024 9.33901 22.034Z" fill="black"/>
<path d="M4.95 20.3258C5.028 20.1755 5.384 19.4892 5.464 19.3364L5.479 19.3089C7.863 14.8129 10.769 10.5699 14.113 6.7026L14.206 6.5949C14.233 6.5624 14.238 6.5123 14.218 6.4747C14.196 6.4346 14.153 6.4146 14.11 6.4196L13.97 6.4396C11.776 6.7427 9.554 7.161 7.365 7.6845C7.147 7.7446 7.007 7.8874 6.977 7.9199C5.339 9.8811 3.788 11.945 2.365 14.0615C2.295 14.1692 2.27 14.3095 2.288 14.4247C2.303 14.5374 2.646 17.1799 3.167 19.2087C1.875 22.9282 0.720001 27.8299 0.720001 27.8299C0.710001 27.8625 0.717001 27.8951 0.735001 27.9226C0.755001 27.9502 0.785 27.9652 0.82 27.9652H1.556C1.604 27.9652 1.644 27.9376 1.662 27.895L1.712 27.7573C2.463 25.7084 3.32 23.6846 4.267 21.7109C4.487 21.255 4.95 20.3258 4.95 20.3258Z" fill="black"/>
<path d="M15.192 7.5091L15.189 7.3689C15.187 7.3238 15.159 7.2862 15.119 7.2712C15.079 7.2562 15.032 7.2687 15.002 7.3013L14.909 7.4065C11.009 11.9175 7.73 16.9219 5.166 22.2845L5.106 22.4097C5.086 22.4498 5.093 22.4974 5.123 22.5299C5.143 22.55 5.171 22.5625 5.198 22.5625C5.211 22.5625 5.226 22.56 5.241 22.555L5.36901 22.5024C7.56 21.5957 9.79701 20.8092 12.018 20.1655C12.151 20.1279 12.264 20.0327 12.327 19.91C13.301 18.0114 15.563 14.3345 15.563 14.3345C15.62 14.2518 15.605 14.1291 15.605 14.1291C15.605 14.1291 15.217 9.7333 15.192 7.5091Z" fill="black"/>
<path d="M20.236 1.1672C19.683 0.686301 18.879 0.460871 17.632 0.433321C16.499 0.408271 15.154 0.653741 13.629 1.15468C13.401 1.23483 13.218 1.36257 13.056 1.52037C11.505 2.97561 9.99701 4.52102 8.57201 6.114L8.46201 6.2342C8.43201 6.2693 8.42701 6.3194 8.44901 6.357C8.47201 6.3971 8.52 6.4171 8.565 6.4071L8.72501 6.372C11.022 5.88108 13.341 5.50537 15.618 5.25741C15.768 5.23987 15.923 5.28997 16.034 5.39266C16.146 5.49535 16.209 5.64313 16.206 5.79592C16.169 8.0552 16.251 10.3245 16.452 12.5411L16.464 12.6864C16.469 12.7315 16.499 12.7666 16.545 12.7791C16.552 12.7816 16.56 12.7816 16.57 12.7841C16.602 12.7841 16.637 12.7691 16.66 12.739L16.742 12.6213C18.025 10.7928 19.42 9.0145 20.888 7.3313C21.053 7.1435 21.096 7.0257 21.126 6.8554C21.586 3.90486 20.873 1.72075 20.236 1.1672Z" fill="black"/>
</svg>
