<svg width="125" height="53" viewBox="0 0 125 53" fill="none" xmlns="http://www.w3.org/2000/svg">
<g clip-path="url(#clip0_1:128)">
<path d="M47.7563 2.64328V5.47057H48.4953C48.7245 5.47057 48.907 5.43866 49.0426 5.37523C49.1783 5.31121 49.2847 5.22016 49.3613 5.10108C49.4291 4.98239 49.4756 4.83608 49.5012 4.66194C49.5269 4.4878 49.5396 4.28603 49.5396 4.05702C49.5396 3.82782 49.5269 3.62624 49.5012 3.4521C49.4756 3.27816 49.4248 3.12717 49.3483 2.99973C49.187 2.76235 48.8813 2.64328 48.4315 2.64328H47.7563ZM46.4574 10.4883V1.42041H48.5461C50.0742 1.42041 50.8383 2.30803 50.8383 4.08251C50.8383 4.61738 50.7556 5.0715 50.5899 5.44488C50.4247 5.81885 50.1338 6.12004 49.7178 6.34944L51.1187 10.4883H49.7433L48.5333 6.61677H47.7563V10.4883H46.4574Z" fill="black"/>
<path d="M53.7434 8.34849C53.7434 8.66272 53.8301 8.89426 54.0043 9.04252C54.1782 9.19117 54.3841 9.26569 54.622 9.26569C54.8594 9.26569 55.0655 9.19117 55.2394 9.04252C55.4134 8.89426 55.5009 8.66272 55.5009 8.34849V3.55975C55.5009 3.24591 55.4134 3.01437 55.2394 2.86572C55.0655 2.71746 54.8594 2.64294 54.622 2.64294C54.3841 2.64294 54.1782 2.71746 54.0043 2.86572C53.8301 3.01437 53.7434 3.24591 53.7434 3.55975V8.34849ZM52.444 3.55975C52.444 3.19513 52.5078 2.87214 52.6353 2.59216C52.7625 2.31178 52.9322 2.0783 53.1447 1.89171C53.3482 1.71309 53.5797 1.57748 53.8387 1.48408C54.0975 1.39069 54.3586 1.34399 54.622 1.34399C54.8849 1.34399 55.146 1.39069 55.4052 1.48408C55.6642 1.57748 55.8996 1.71309 56.1121 1.89171C56.316 2.0783 56.4812 2.31178 56.6086 2.59216C56.7358 2.87214 56.7997 3.19513 56.7997 3.55975V8.34849C56.7997 8.73063 56.7358 9.05751 56.6086 9.32912C56.4812 9.60113 56.316 9.82605 56.1121 10.0043C55.8996 10.1911 55.6642 10.3312 55.4052 10.4246C55.146 10.5176 54.8849 10.5647 54.622 10.5647C54.3586 10.5647 54.0975 10.5176 53.8387 10.4246C53.5797 10.3312 53.3482 10.1911 53.1447 10.0043C52.9322 9.82605 52.7625 9.60113 52.6353 9.32912C52.5078 9.05751 52.444 8.73063 52.444 8.34849V3.55975Z" fill="black"/>
<path d="M59.8823 6.28562V9.18937H60.4427C60.7057 9.18937 60.9116 9.15124 61.0602 9.07458C61.2089 8.99811 61.3214 8.89246 61.3978 8.75646C61.4743 8.62065 61.5208 8.45915 61.5377 8.27256C61.5546 8.08558 61.5634 7.88187 61.5634 7.66103C61.5634 7.43202 61.5508 7.23239 61.5251 7.06253C61.4998 6.89287 61.4486 6.7485 61.3725 6.62942C61.2873 6.51073 61.1725 6.42357 61.0287 6.3685C60.884 6.31325 60.6931 6.28562 60.4553 6.28562H59.8823ZM59.8823 2.64328V5.13921H60.468C60.9013 5.13921 61.1918 5.03123 61.3406 4.81467C61.4889 4.59831 61.5634 4.28214 61.5634 3.86595C61.5634 3.45833 61.4805 3.15266 61.3149 2.94895C61.1494 2.74504 60.8501 2.64328 60.417 2.64328H59.8823ZM58.5834 10.4883V1.42041H60.481C60.8966 1.42041 61.2515 1.48442 61.5443 1.61167C61.837 1.73911 62.0769 1.90897 62.2637 2.12125C62.4506 2.33333 62.5843 2.57771 62.6651 2.85341C62.7456 3.12951 62.7861 3.41611 62.7861 3.71302V4.04418C62.7861 4.2907 62.7668 4.4985 62.7285 4.66816C62.6903 4.83802 62.6331 4.98667 62.5567 5.11412C62.4123 5.35188 62.1915 5.55579 61.8946 5.72526C62.2002 5.86963 62.425 6.08171 62.5693 6.36208C62.7137 6.64207 62.7861 7.0242 62.7861 7.50849V8.01787C62.7861 8.81599 62.5927 9.42714 62.2065 9.85149C61.82 10.2762 61.2025 10.4883 60.3536 10.4883H58.5834Z" fill="black"/>
<path d="M65.976 1.42041H64.6769V10.4883H65.976V1.42041Z" fill="black"/>
<path d="M67.8229 10.4883V1.42041H69.0709L71.0324 6.88431H71.0577V1.42041H72.357V10.4883H71.1341L69.1476 5.03745H69.1219V10.4883H67.8229Z" fill="black"/>
<path d="M74.1685 10.4883V1.42041H75.4674V5.30499H77.0724V1.42041H78.3714V10.4883H77.0724V6.4512H75.4674V10.4883H74.1685Z" fill="black"/>
<path d="M81.4544 8.34849C81.4544 8.66272 81.5411 8.89426 81.7155 9.04252C81.8892 9.19117 82.0953 9.26569 82.333 9.26569C82.5704 9.26569 82.7767 9.19117 82.9504 9.04252C83.1244 8.89426 83.2119 8.66272 83.2119 8.34849V3.55975C83.2119 3.24591 83.1244 3.01437 82.9504 2.86572C82.7767 2.71746 82.5704 2.64294 82.333 2.64294C82.0953 2.64294 81.8892 2.71746 81.7155 2.86572C81.5411 3.01437 81.4544 3.24591 81.4544 3.55975V8.34849ZM80.155 3.55975C80.155 3.19513 80.2188 2.87214 80.3465 2.59216C80.4737 2.31178 80.6432 2.0783 80.8559 1.89171C81.0594 1.71309 81.2907 1.57748 81.5497 1.48408C81.8085 1.39069 82.0696 1.34399 82.333 1.34399C82.5959 1.34399 82.857 1.39069 83.1162 1.48408C83.3752 1.57748 83.6106 1.71309 83.8231 1.89171C84.027 2.0783 84.1922 2.31178 84.3196 2.59216C84.447 2.87214 84.5109 3.19513 84.5109 3.55975V8.34849C84.5109 8.73063 84.447 9.05751 84.3196 9.32912C84.1922 9.60113 84.027 9.82605 83.8231 10.0043C83.6106 10.1911 83.3752 10.3312 83.1162 10.4246C82.857 10.5176 82.5959 10.5647 82.333 10.5647C82.0696 10.5647 81.8085 10.5176 81.5497 10.4246C81.2907 10.3312 81.0594 10.1911 80.8559 10.0043C80.6432 9.82605 80.4737 9.60113 80.3465 9.32912C80.2188 9.05751 80.155 8.73063 80.155 8.34849V3.55975Z" fill="black"/>
<path d="M87.517 8.34849C87.517 8.66272 87.6039 8.89426 87.7781 9.04252C87.9518 9.19117 88.1577 9.26569 88.3958 9.26569C88.6332 9.26569 88.8391 9.19117 89.0132 9.04252C89.1873 8.89426 89.2743 8.66272 89.2743 8.34849V3.55975C89.2743 3.24591 89.1873 3.01437 89.0132 2.86572C88.8391 2.71746 88.6332 2.64294 88.3958 2.64294C88.1577 2.64294 87.9518 2.71746 87.7781 2.86572C87.6039 3.01437 87.517 3.24591 87.517 3.55975V8.34849ZM86.218 3.55975C86.218 3.19513 86.2814 2.87214 86.4089 2.59216C86.5361 2.31178 86.7062 2.0783 86.9183 1.89171C87.1222 1.71309 87.3533 1.57748 87.6123 1.48408C87.8713 1.39069 88.1324 1.34399 88.3958 1.34399C88.6589 1.34399 88.92 1.39069 89.179 1.48408C89.4378 1.57748 89.6734 1.71309 89.8857 1.89171C90.0896 2.0783 90.2549 2.31178 90.3826 2.59216C90.5098 2.87214 90.5733 3.19513 90.5733 3.55975V8.34849C90.5733 8.73063 90.5098 9.05751 90.3826 9.32912C90.2549 9.60113 90.0896 9.82605 89.8857 10.0043C89.6734 10.1911 89.4378 10.3312 89.179 10.4246C88.92 10.5176 88.6589 10.5647 88.3958 10.5647C88.1324 10.5647 87.8713 10.5176 87.6123 10.4246C87.3533 10.3312 87.1222 10.1911 86.9183 10.0043C86.7062 9.82605 86.5361 9.60113 86.4089 9.32912C86.2814 9.05751 86.218 8.73063 86.218 8.34849V3.55975Z" fill="black"/>
<path d="M93.6563 2.64328V9.26603H94.2548C94.6196 9.26603 94.8786 9.17478 95.0315 8.99188C95.1845 8.80957 95.2607 8.52297 95.2607 8.13228V3.764C95.2607 3.40755 95.1885 3.13184 95.0444 2.9363C94.9 2.74095 94.6369 2.64328 94.2548 2.64328H93.6563ZM92.3574 10.4883V1.42041H94.2801C95.0274 1.42041 95.594 1.62432 95.9804 2.03213C96.3667 2.43937 96.5601 3.01705 96.5601 3.764V8.00503C96.5601 8.85413 96.3538 9.48045 95.9421 9.8834C95.5302 10.2869 94.9383 10.4883 94.1657 10.4883H92.3574Z" fill="black"/>
<path d="M120.019 15.27C119.813 15.5929 119.577 15.9179 119.323 16.206C119.072 16.4899 118.961 16.5304 118.803 16.1566C118.574 15.6145 118.468 14.969 118.534 14.3854C118.623 13.6025 119.227 12.6725 120.134 12.8092C121.213 12.9719 120.325 14.7892 120.019 15.27ZM102.571 21.4617C102.518 21.3833 102.778 20.9566 102.819 20.8833C103.046 20.4722 103.341 20.0931 103.658 19.7476C104.227 19.1281 105.1 18.4671 105.994 18.5951C106.474 18.6675 106.498 19.252 106.368 19.6198C106.222 20.0287 105.873 20.3451 105.529 20.5908C104.749 21.1487 103.767 21.501 102.8 21.4791C102.771 21.4783 102.594 21.496 102.571 21.4617ZM71.4857 24.4867C71.3522 25.5726 71.024 26.5988 70.5642 27.5901C69.577 29.7189 68.221 31.7868 66.5306 33.4256C66.1732 33.772 65.5297 34.4434 64.9561 34.3948C64.102 34.3222 64.2868 32.5964 64.3693 32.0492C64.6769 30.0061 65.8338 28.0131 66.8946 26.2736C67.3997 25.4455 67.9622 24.6575 68.5872 23.9157C69.1462 23.2522 70.0144 22.2927 70.9921 22.4402C71.7674 22.5572 71.5487 23.9732 71.4857 24.4867ZM124.589 27.4737C124.03 25.4494 123.219 23.4697 122.256 21.6057C122.01 21.1288 121.679 20.6749 121.473 20.1801C121.269 19.6914 121.375 19.3205 121.624 18.8751C122.095 18.0313 122.66 17.2861 123.006 16.373C123.686 14.5804 123.75 12.3285 122.288 10.8916C121.019 9.64378 119.123 9.77531 117.842 10.9336C116.622 12.0366 115.925 13.728 115.678 15.3279C115.543 16.2023 115.599 17.0464 115.823 17.9027C115.902 18.2062 116.022 18.5146 116.081 18.8238C116.164 19.2647 115.91 19.6034 115.636 19.9262C114.22 21.5942 112.781 23.2465 111.259 24.82C110.476 25.6288 109.676 26.4203 108.859 27.1945C108.063 27.9489 107.277 28.796 106.372 29.421C105.996 29.6807 105.757 29.7656 105.416 29.4185C105.182 29.1805 104.971 28.8867 104.779 28.6163C104.449 28.1518 104.169 27.6551 103.873 27.1689C103.679 26.849 103.184 26.3822 103.18 25.9962C103.176 25.6882 103.519 25.5759 103.753 25.4574C104.197 25.2325 104.641 25.0072 105.078 24.7677C105.976 24.2748 106.836 23.7158 107.594 23.0226C108.941 21.7911 110.034 20.1966 109.891 18.2955C109.758 16.5226 108.397 14.6195 106.426 14.894C105.433 15.0322 104.586 15.6675 103.873 16.3331C103.375 16.7969 102.923 17.4332 102.376 17.8354C103.1 16.4247 103.863 15.0334 104.588 13.6233C106.058 10.7668 107.513 7.89149 108.789 4.94279C109.123 4.17249 109.494 3.40238 109.376 2.53908C109.283 1.86081 108.893 1.28138 108.276 0.974741C107.063 0.371576 106.001 1.00023 105.338 2.04371C104.53 3.31502 103.978 4.7848 103.341 6.14503C102.92 7.04336 102.5 7.94169 102.078 8.83963C100.625 11.9348 99.1474 15.019 97.5714 18.0541C96.0904 20.9059 94.6138 23.8261 92.563 26.3215C91.6145 27.4757 90.5257 28.5085 89.368 29.45C88.3395 30.2866 87.2522 31.1453 86.0663 31.7531C85.6019 31.9915 85.0275 32.2633 84.4895 32.1963C83.8037 32.1111 83.6471 31.3875 83.6743 30.8013C83.7373 29.4408 84.415 27.9567 85.0303 26.7673C85.8319 25.2175 86.8938 23.8977 88.0241 22.5817C88.2533 22.3147 88.4767 22.006 88.7781 21.8147C89.0909 21.616 89.2888 21.704 89.5984 21.8649C90.3344 22.247 91.0014 22.454 91.7954 22.092C93.1273 21.4841 93.551 19.9581 92.9337 18.6743C92.2974 17.3511 90.8813 16.5788 89.4382 16.5788C87.8223 16.5788 86.4514 17.49 85.3095 18.5535C84.1998 19.5871 83.2116 20.7854 82.3806 22.0521C81.4354 23.4927 80.7859 25.0412 80.1434 26.6316C79.5741 28.0411 78.8589 29.3982 77.9736 30.6367C77.7104 31.0052 75.3428 33.9412 74.9554 33.3038C74.7436 32.9553 75.0477 32.0891 75.128 31.7196C75.3172 30.8509 75.5703 29.9977 75.83 29.1478C76.0758 28.3427 76.332 27.5446 76.6058 26.7486C76.8556 26.0221 77.1095 25.2434 77.055 24.4645C77.0035 23.7294 76.5848 23.3481 76.0606 22.8957C75.5971 22.4957 75.4033 21.9415 75.1749 21.3929C74.6578 20.1501 73.7703 18.9989 72.5247 18.4241C71.2952 17.857 69.9132 17.9583 68.6928 18.4889C66.55 19.4207 64.8875 21.3584 63.644 23.2831C61.7936 26.1478 60.5723 29.3381 58.4608 32.0444C57.582 33.1709 56.6003 34.4148 55.3771 35.1876C55.2882 35.2439 54.9778 35.4667 54.8815 35.3682C54.7245 35.2073 55.0236 34.5049 55.086 34.3249C55.3831 33.4684 55.6647 32.6078 55.9485 31.7465C56.4953 30.0876 57.1126 28.4489 57.6185 26.777C58.088 25.2259 58.4737 23.5724 58.3573 21.9406C58.2713 20.7356 57.8108 19.4974 56.6694 18.924C55.2701 18.221 53.6647 18.8208 52.422 19.5684C51.0866 20.3716 49.9505 21.459 48.9057 22.605C48.3868 23.1743 47.8881 23.7614 47.39 24.3488C46.9915 24.8186 46.5997 25.4389 46.1051 25.8174C45.9502 25.5347 46.2705 24.7426 46.3306 24.4342C46.4773 23.6804 46.6748 22.9304 46.7125 22.16C46.7721 20.942 46.285 19.7085 44.9768 19.4267C43.8228 19.1783 42.9536 19.9272 42.417 20.8625C41.8018 21.9345 41.2681 23.0451 40.6213 24.1019C39.2337 26.3686 37.6586 28.5135 36.0633 30.6371C35.0854 31.9387 34.0883 33.2305 33.1141 34.538C33.0929 34.2189 33.0664 33.9 33.0306 33.5821C32.5484 29.3216 30.7137 25.3673 28.1852 21.9414C25.9033 18.8494 23.2455 15.4931 23.0357 11.4869C22.934 9.54553 23.692 7.52843 25.121 6.19485C26.5057 4.90252 28.4273 4.46434 30.2768 4.64277C31.9799 4.80698 33.5859 5.53097 34.7014 6.85307C36.0009 8.39368 36.4356 10.526 36.1902 12.4938C36.118 13.0738 35.9878 13.6455 35.8131 14.2031C35.652 14.7176 35.5314 15.1875 35.6773 15.7239C35.9266 16.6407 36.7969 17.3236 37.7438 17.3626C38.7527 17.404 39.5164 16.7325 39.8615 15.8301C40.2544 14.8038 40.4875 13.6811 40.5947 12.5896C41.0005 8.45691 39.2792 4.18222 35.7495 1.88143C32.3471 -0.336073 27.6579 -0.670148 24.0629 1.29033C20.9597 2.9825 18.8334 6.24816 18.3445 9.72667C17.7693 13.8189 19.4852 17.8871 21.5778 21.3067C22.6711 23.0932 23.95 24.7577 25.0363 26.5482C26.2051 28.475 27.0694 30.5795 27.4488 32.8069C27.8004 34.8689 27.8025 37.11 27.1873 39.124C26.6154 40.9967 25.4613 42.6943 24.0218 44.0098C20.8967 46.8663 16.4542 47.8494 12.4138 46.6258C8.9104 45.5646 6.22766 42.5179 5.3737 38.9921C4.55612 35.6157 5.24956 31.7761 8.06927 29.5249C8.84618 28.9048 9.9134 28.568 10.4529 27.6936C10.924 26.9301 10.952 25.947 10.514 25.1628C10.086 24.3964 9.2575 23.874 8.37337 23.8672C7.35675 23.8592 6.44695 24.5132 5.65019 25.0728C2.32908 27.406 0.361589 31.0581 0.0498889 35.0824C-0.280101 39.3405 1.0383 43.4162 3.66771 46.769C6.1547 49.9405 9.96593 51.9208 13.9219 52.5176C16.1593 52.8549 18.4723 52.7567 20.6612 52.173C24.394 51.1774 27.7352 48.8517 30.0105 45.7362C30.8574 44.577 31.5665 43.329 32.0856 42.0011C32.1862 41.7902 32.3142 41.602 32.8444 40.8842C33.353 40.1959 33.841 39.4923 34.3301 38.7897C35.2977 37.3997 36.2425 35.9937 37.1716 34.5779C38.0756 33.2001 38.9648 31.8128 39.8465 30.4209C40.3139 29.6831 40.8293 28.9505 41.2416 28.1791C40.5626 30.6867 39.8234 33.1838 39.0336 35.6587C38.6723 36.7907 38.159 37.9069 37.8927 39.0642C37.6501 40.1184 37.8423 41.2444 38.8716 41.8014C39.8053 42.3069 40.927 42.0478 41.5784 41.2273C42.2121 40.4286 42.5225 39.3372 42.9791 38.4331C44.1123 36.1897 45.4959 34.0767 46.93 32.016C48.1716 30.2318 49.4916 28.5005 50.9281 26.8682C51.2888 26.4585 51.6563 26.0547 52.0326 25.6594C52.3891 25.2848 52.7611 24.7533 53.1969 24.4721C53.9106 24.012 53.609 24.9877 53.5059 25.3146C53.3189 25.9088 53.1306 26.5026 52.9372 27.0949C52.276 29.1219 51.5968 31.1437 50.9767 33.1838C50.4592 34.8857 49.4252 37.3404 50.6389 38.9625C51.9441 40.7068 54.4325 39.7489 55.7882 38.6288C56.6517 37.9155 57.431 37.0911 58.196 36.2753C58.8828 35.5433 59.5123 34.7193 60.2489 34.0383C60.5589 36.4325 61.9703 38.6804 64.609 38.736C67.261 38.792 69.5491 37.0423 70.764 34.7946C70.6821 35.7883 70.8522 36.9024 71.6814 37.5567C72.4603 38.171 73.5392 38.1681 74.4431 37.8632C75.386 37.5449 76.1608 36.9008 76.8544 36.2064C77.664 35.3958 78.4024 34.5109 79.0371 33.5568C79.042 34.7495 79.4235 36.0019 80.5126 36.6343C82.0352 37.5184 83.8228 36.7983 85.2398 36.0585C88.1511 34.5391 90.6047 32.1539 93.0023 29.9463C92.7377 30.6491 92.4743 31.3521 92.2068 32.0535C91.9205 32.8044 91.5454 33.5982 91.7131 34.4205C91.998 35.8163 93.8014 36.5745 94.9778 35.7439C95.9919 35.0277 96.3104 33.5519 96.7159 32.4534C97.406 30.5845 98.0812 28.7106 98.7544 26.8356C99.6072 28.5384 100.522 30.2586 101.691 31.7704C102.596 32.9413 103.81 34.0494 105.353 34.1796C107.145 34.3306 108.72 33.134 109.99 32.0164C112.986 29.3794 115.685 26.4163 118.35 23.452C118.792 24.428 119.248 25.3987 119.646 26.3937C120.164 27.6905 121.199 29.7078 120.296 31.0307C119.552 32.1195 117.8 32.1193 116.679 31.7101C115.889 31.4219 115.297 30.7851 114.52 30.494C113.764 30.2109 112.897 30.4394 112.334 31.0079C111.686 31.6624 111.506 32.6748 111.938 33.4963C112.313 34.2115 113.034 34.7145 113.718 35.1046C117.056 37.0061 121.74 36.5599 124 33.1921C125.162 31.4611 125.126 29.4196 124.589 27.4737Z" fill="white"/>
</g>
<defs>
<clipPath id="clip0_1:128">
<rect width="125" height="53" fill="white"/>
</clipPath>
</defs>
</svg>
